HIERARCHY
ROOT Hips
{
	OFFSET 0.000000 88.474243 0.000000
	CHANNELS 6 Xposition Yposition Zposition Zrotation Yrotation Xrotation 
	JOINT Hips_Spine
	{
		OFFSET 0.000000 0.000000 0.000000
		CHANNELS 3 Zrotation Yrotation Xrotation
		JOINT Spine
		{
			OFFSET 0.005100 8.711998 -0.691000
			CHANNELS 3 Zrotation Yrotation Xrotation
			JOINT Spine1
			{
				OFFSET -0.009200 8.660301 -1.275000
				CHANNELS 3 Zrotation Yrotation Xrotation
				JOINT Spine2
				{
					OFFSET 0.006300 9.852501 -1.857000
					CHANNELS 3 Zrotation Yrotation Xrotation
					JOINT Spine2_Neck
					{
						OFFSET 0.000000 0.000000 0.000000
						CHANNELS 3 Zrotation Yrotation Xrotation
						JOINT Neck
						{
							OFFSET 0.016300 11.420799 -0.263300
							CHANNELS 3 Zrotation Yrotation Xrotation
							End Site #name: Head
							{
								OFFSET -0.019200 9.262405 2.362500
							}
						}
					}
					JOINT Spine2_LeftShoulder
					{
						OFFSET 0.000000 0.000000 0.000000
						CHANNELS 3 Zrotation Yrotation Xrotation
						JOINT LeftShoulder
						{
							OFFSET 5.616900 6.732201 -0.345700
							CHANNELS 3 Zrotation Yrotation Xrotation
							JOINT LeftArm
							{
								OFFSET 10.664888 -0.183372 -2.440700
								CHANNELS 3 Zrotation Yrotation Xrotation
								JOINT LeftForeArm
								{
									OFFSET 27.459126 0.000000 0.000000
									CHANNELS 3 Zrotation Yrotation Xrotation
									End Site #name: LeftHand
									{
										OFFSET 21.306858 0.000000 0.000000
									}
								}
							}
						}
					}
					JOINT Spine2_RightShoulder
					{
						OFFSET 0.000000 0.000000 0.000000
						CHANNELS 3 Zrotation Yrotation Xrotation
						JOINT RightShoulder
						{
							OFFSET -5.580300 6.737503 -0.344400
							CHANNELS 3 Zrotation Yrotation Xrotation
							JOINT RightArm
							{
								OFFSET -10.679335 -0.188484 -2.383900
								CHANNELS 3 Zrotation Yrotation Xrotation
								JOINT RightForeArm
								{
									OFFSET -27.503529 0.000000 0.000000
									CHANNELS 3 Zrotation Yrotation Xrotation
									End Site #name: RightHand
									{
										OFFSET -21.306808 0.000000 0.000000
									}
								}
							}
						}
					}
				}
			}
		}
	}
	JOINT Hips_LeftUpLeg
	{
		OFFSET 0.000000 0.000000 0.000000
		CHANNELS 3 Zrotation Yrotation Xrotation
		JOINT LeftUpLeg
		{
			OFFSET 6.857700 -6.739601 0.312100
			CHANNELS 3 Zrotation Yrotation Xrotation
			JOINT LeftLeg
			{
				OFFSET -0.367590 -34.731552 -4.572400
				CHANNELS 3 Zrotation Yrotation Xrotation
				End Site #name: LeftFoot
				{
					OFFSET 0.367590 -34.656704 -6.067400
				}
			}
		}
	}
	JOINT Hips_RightUpLeg
	{
		OFFSET 0.000000 0.000000 0.000000
		CHANNELS 3 Zrotation Yrotation Xrotation
		JOINT RightUpLeg
		{
			OFFSET -6.876100 -6.733299 0.301000
			CHANNELS 3 Zrotation Yrotation Xrotation
			JOINT RightLeg
			{
				OFFSET 0.347353 -34.795158 -4.515900
				CHANNELS 3 Zrotation Yrotation Xrotation
				End Site #name: RightFoot
				{
					OFFSET -0.347353 -34.589367 -6.070300
				}
			}
		}
	}
}
MOTION
Frames: 15
Frame Time: 0.041667
0.717768 -1.941866 5.523257 -15.775554 -52.467450 4.092192 -0.000000 0.000000 0.000000 -0.326860 0.616153 1.596553 3.622653 0.893844 3.892754 0.000000 0.000000 0.000000 3.846133 1.469601 4.100059 2.581829 -0.191155 5.401352 3.589701 1.334625 4.022257 2.111567 -9.133609 1.096749 -74.501500 0.777444 19.138341 0.075584 -13.440581 -0.272180 3.847277 1.260166 3.641167 -6.154590 -11.210034 0.357179 -36.769271 48.517163 -93.675605 -179.881355 82.729041 179.799928 -0.000000 0.000000 0.000000 2.665732 4.041607 -15.404435 11.032686 1.040940 42.181693 -0.000000 -0.000000 -0.000000 5.428273 -1.029735 -25.993349 -0.387260 9.424763 46.766325 
1.379576 -2.139408 6.006840 -11.656044 -52.145564 1.162097 -0.000000 0.000000 0.000000 -0.901739 0.550900 1.881126 2.674300 0.864437 4.300564 0.000000 0.000000 0.000000 2.748411 1.416388 4.586731 2.130142 0.112549 6.033209 2.666182 1.310462 4.417073 1.680761 -8.855493 1.114404 -72.986888 0.315357 19.543999 0.084118 -13.014603 -0.264211 2.940639 1.251626 3.860591 -6.605800 -11.039678 0.370093 -34.467371 45.404467 -93.803368 -179.941432 78.870203 179.721564 -0.000000 0.000000 0.000000 0.286714 7.158560 -15.532562 10.347314 2.023303 40.804413 -0.000000 -0.000000 -0.000000 3.982407 -0.560146 -29.562488 -2.349281 9.253711 54.579516 
1.835940 -2.348851 6.404865 -7.076881 -50.605050 -1.995524 -0.000000 0.000000 0.000000 -1.565394 0.562959 2.223635 1.227942 0.790850 4.761812 0.000000 0.000000 0.000000 1.199736 1.327108 4.885572 1.874934 0.325880 6.160552 1.227557 1.277854 4.846923 1.286500 -8.580220 1.132705 -71.654360 0.044639 19.571385 0.090975 -12.585150 -0.256084 1.506290 1.229883 4.348193 -7.486111 -10.337528 0.460109 -31.511089 41.872440 -93.858460 -179.984751 74.567000 179.659635 -0.000000 0.000000 0.000000 -2.192027 9.015430 -15.772588 9.677492 3.098556 39.209827 -0.000000 -0.000000 -0.000000 2.711210 0.679502 -33.261522 -4.324302 8.462550 58.588883 
2.060090 -2.588424 6.699224 -2.739807 -48.277826 -4.661514 -0.000000 0.000000 0.000000 -2.116605 0.647158 2.515693 -0.858422 0.880229 5.093396 0.000000 0.000000 0.000000 -0.906870 1.245814 4.867208 1.769634 0.459089 6.236273 -0.693843 1.134334 5.198546 0.892114 -8.265696 1.147367 -70.193395 0.233458 18.994745 0.091912 -12.081196 -0.248404 -0.627341 1.184199 4.852614 -8.400248 -9.270153 0.545764 -28.371142 38.731503 -93.026043 -179.980250 70.138064 179.661272 -0.000000 0.000000 0.000000 -4.664707 10.450403 -16.529853 8.932763 3.972379 38.110275 -0.000000 -0.000000 -0.000000 0.884911 2.593530 -35.062628 -5.667117 8.131470 58.972763 
2.061237 -2.888240 6.882089 1.196807 -45.639792 -6.690828 -0.000000 0.000000 0.000000 -2.169579 0.709194 2.657330 -3.048775 0.980698 5.495797 0.000000 0.000000 0.000000 -3.246986 1.119036 4.931916 1.786271 0.509389 6.592689 -3.059853 0.901058 5.541129 0.452260 -7.941084 1.165497 -68.877195 0.449651 18.351333 0.089036 -11.560426 -0.236849 -3.131911 1.149241 5.229010 -8.916967 -7.647489 0.578200 -24.704805 36.231768 -90.740073 179.995762 64.567627 179.657839 -0.000000 0.000000 0.000000 -7.226887 10.729114 -17.540160 8.307229 4.641664 37.453348 -0.000000 -0.000000 -0.000000 -1.524848 4.090779 -34.935236 -5.446467 8.360755 56.316041 
1.868806 -3.201517 6.973922 4.640191 -43.089027 -7.981267 -0.000000 0.000000 0.000000 -1.874478 0.889534 2.475389 -5.097848 1.140753 5.762733 0.000000 0.000000 0.000000 -5.529521 1.034296 5.020418 1.759386 0.462371 6.986931 -5.346890 0.760753 5.548810 0.082672 -7.619890 1.164352 -67.872041 0.824201 17.906003 0.089656 -10.978491 -0.227611 -5.312327 1.023138 5.131502 -8.772154 -6.156560 0.512781 -20.183152 33.925394 -87.317001 179.951553 58.826681 179.617923 -0.000000 0.000000 0.000000 -10.009856 9.812745 -18.732353 7.732167 4.943453 37.009708 -0.000000 -0.000000 -0.000000 -3.877486 4.655870 -33.281475 -5.754150 8.803084 52.325605 
1.511515 -3.547562 6.982658 7.445922 -40.948852 -8.707577 -0.000000 0.000000 0.000000 -1.477454 1.309870 2.358919 -7.331905 1.108705 5.737170 0.000000 0.000000 0.000000 -7.808556 1.029461 5.028060 1.776751 0.317929 7.359312 -7.789775 0.649582 5.404947 -0.116857 -7.289269 1.146009 -67.376084 1.171768 17.351987 0.096069 -10.348423 -0.216138 -7.574027 0.845125 5.098049 -8.598018 -4.934850 0.449149 -16.946198 34.101938 -82.221289 179.836712 54.732989 179.557615 -0.000000 0.000000 0.000000 -12.380207 8.664300 -19.748056 7.271669 5.098603 36.891154 -0.000000 -0.000000 -0.000000 -6.372599 6.384649 -32.215498 -7.792191 8.072029 50.031998 
1.006671 -3.947037 6.893290 9.888426 -38.985573 -9.212687 -0.000000 0.000000 0.000000 -1.260687 1.770141 2.128285 -9.690254 1.031143 5.507831 0.000000 0.000000 0.000000 -10.243988 1.018446 5.055177 1.849315 0.222253 7.455335 -10.349036 0.517193 5.299970 -0.246922 -6.885250 1.100668 -67.149819 1.184380 16.916490 0.096861 -10.128414 -0.218789 -9.997384 0.617879 5.102552 -7.480169 -4.081497 0.433164 -15.574166 36.596401 -73.563941 179.675892 51.906880 179.499565 -0.000000 0.000000 0.000000 -14.405216 7.531455 -20.538018 7.022857 5.039023 37.034395 -0.000000 -0.000000 -0.000000 -8.722565 8.335950 -32.332386 -9.336551 7.219596 50.263205 
0.376972 -4.407041 6.708872 11.988254 -37.302362 -9.604862 -0.000000 0.000000 0.000000 -1.268587 1.930711 2.307404 -12.067295 0.872664 5.165763 0.000000 0.000000 0.000000 -12.981486 0.925966 5.410457 1.838852 0.099406 7.270780 -12.930318 0.365589 5.202948 -0.473050 -6.091390 0.998988 -66.459127 1.159286 17.289680 0.087210 -11.066891 -0.222555 -12.407641 0.317243 5.228973 -6.247777 -3.427755 0.352606 -14.425372 40.555258 -63.527033 179.547803 51.348150 179.527202 -0.000000 0.000000 0.000000 -16.061191 6.460923 -21.289862 6.989176 4.772584 37.620556 -0.000000 -0.000000 -0.000000 -10.418880 10.005915 -32.986322 -10.120343 6.633235 51.757337 
-0.361829 -4.930849 6.434418 13.660293 -35.816715 -9.949400 -0.000000 0.000000 0.000000 -1.366506 1.953005 2.717875 -14.406810 0.481682 4.710482 0.000000 0.000000 0.000000 -15.651141 0.717221 5.848068 1.752958 0.083870 6.979232 -15.441433 0.181548 5.121315 -0.816759 -4.872678 0.868072 -65.006587 1.061188 18.038102 0.065449 -13.206807 -0.234135 -14.715247 -0.005158 5.432174 -4.813736 -2.928075 0.308229 -9.673826 43.651755 -53.038359 179.397278 50.330537 179.510572 -0.000000 0.000000 0.000000 -17.309087 5.437152 -22.028407 7.171387 4.302827 38.654571 -0.000000 -0.000000 -0.000000 -11.640487 11.086435 -33.618382 -10.158854 6.665151 53.588650 
-1.169136 -5.508204 6.086310 14.903043 -34.605205 -10.285603 -0.000000 0.000000 0.000000 -1.379408 1.939326 3.360873 -16.523510 0.127915 4.486722 0.000000 0.000000 0.000000 -18.053398 0.488255 6.272345 1.656039 0.233004 6.634228 -17.694451 0.040699 5.106788 -1.138488 -3.554421 0.732394 -63.129116 0.694195 18.654379 0.038928 -18.026338 -0.243937 -16.791535 -0.229184 5.727802 -3.781185 -2.684030 0.342801 0.537949 45.860419 -39.069386 179.264145 50.047726 179.490296 -0.000000 0.000000 0.000000 -18.083929 4.584232 -22.724323 7.548497 3.694023 40.040215 -0.000000 -0.000000 -0.000000 -12.451075 11.552930 -34.228702 -10.075684 6.731151 55.621516 
-2.042774 -6.177460 5.651131 15.626337 -33.750115 -10.576344 -0.000000 0.000000 0.000000 -1.186511 1.927987 3.981700 -18.238618 -0.075006 4.425569 0.000000 0.000000 0.000000 -20.032739 0.342596 6.853761 1.802117 0.039682 6.277092 -19.569847 -0.010697 5.235361 -1.155352 -1.964547 0.553049 -60.289262 -1.337292 17.810592 0.070749 -32.772456 -0.288756 -18.485443 -0.292795 6.023225 -3.153883 -2.715350 0.434099 14.289746 45.612735 -23.079405 179.088900 50.005337 179.436514 -0.000000 0.000000 0.000000 -18.257011 4.027309 -23.389593 8.023209 3.000862 41.739077 -0.000000 -0.000000 -0.000000 -12.733662 11.292984 -34.880163 -9.850593 6.799735 58.015013 
-2.983090 -6.965791 5.147559 15.690830 -33.208935 -10.741421 -0.000000 0.000000 0.000000 -0.871703 2.073532 4.212954 -19.310217 -0.145734 4.479825 0.000000 0.000000 0.000000 -21.288326 0.274121 7.263089 2.492943 -0.671389 5.804581 -20.831335 0.005349 5.440319 -1.127878 -0.356864 0.373487 -57.696017 -4.412077 15.868327 0.181237 -55.309869 -0.421078 -19.593428 -0.233212 6.330389 -2.506784 -2.876870 0.541572 27.573353 42.980880 -7.954958 178.958221 50.457288 179.342130 -0.000000 0.000000 0.000000 -17.734871 3.686711 -24.114112 8.578579 2.281002 43.922242 -0.000000 -0.000000 -0.000000 -12.263801 10.247721 -35.604953 -9.677710 6.829178 60.631468 
-3.994386 -7.797265 4.610293 14.859326 -32.906563 -10.709951 -0.000000 0.000000 0.000000 -0.661037 2.228601 4.013903 -19.548560 -0.159277 4.665142 0.000000 0.000000 0.000000 -21.585369 0.174329 7.401914 3.474569 -1.551536 5.060811 -21.134248 -0.014348 5.602245 -1.127878 0.925302 0.238757 -55.696696 -8.241965 13.130639 0.673881 -77.440392 -0.938519 -19.898191 -0.148576 6.683281 -1.207242 -2.976219 0.711933 42.484367 35.756286 9.732098 178.866500 51.363649 179.276908 -0.000000 0.000000 0.000000 -16.448003 3.429445 -24.893479 9.118126 1.331689 46.685798 -0.000000 -0.000000 -0.000000 -10.764449 8.414505 -36.333497 -9.508610 6.808304 63.239612 
-5.089214 -8.607266 4.062240 13.015453 -32.643744 -10.232896 -0.000000 0.000000 0.000000 -0.668752 2.170966 3.320272 -18.743631 -0.208730 5.051685 0.000000 0.000000 0.000000 -20.675080 -0.041470 7.333394 4.387551 -2.312837 4.343789 -20.211518 -0.155635 5.778377 -1.020628 1.865706 0.154838 -54.749769 -11.907539 11.800921 175.531549 -87.056702 -175.857178 -19.166048 -0.132523 7.120051 -0.160695 -3.081308 0.792543 52.059716 26.985439 22.271530 178.777203 52.059947 179.173165 -0.000000 0.000000 0.000000 -14.295993 3.252253 -25.638638 9.614247 0.228246 49.608769 -0.000000 -0.000000 -0.000000 -8.262889 5.979500 -36.935617 -9.433051 6.620472 65.306766 
